<?xml version="1.0" encoding="UTF-8" standalone="no"?>
<!-- Created with Inkscape (http://www.inkscape.org/) -->

<svg
   xmlns:dc="http://purl.org/dc/elements/1.1/"
   xmlns:cc="http://creativecommons.org/ns#"
   xmlns:rdf="http://www.w3.org/1999/02/22-rdf-syntax-ns#"
   xmlns:svg="http://www.w3.org/2000/svg"
   xmlns="http://www.w3.org/2000/svg"
   xmlns:sodipodi="http://sodipodi.sourceforge.net/DTD/sodipodi-0.dtd"
   xmlns:inkscape="http://www.inkscape.org/namespaces/inkscape"
   width="217.78755"
   height="80.909012"
   viewBox="0 0 57.622954 21.407176"
   version="1.1"
   id="svg42846"
   inkscape:version="0.92.4 (5da689c313, 2019-01-14)"
   sodipodi:docname="amkor technology.svg">
  <defs
     id="defs42840" />
  <sodipodi:namedview
     id="base"
     pagecolor="#ffffff"
     bordercolor="#666666"
     borderopacity="1.0"
     inkscape:pageopacity="0.0"
     inkscape:pageshadow="2"
     inkscape:zoom="6.6222541"
     inkscape:cx="107.89378"
     inkscape:cy="39.454507"
     inkscape:document-units="mm"
     inkscape:current-layer="layer1"
     showgrid="false"
     fit-margin-top="0"
     fit-margin-left="0"
     fit-margin-right="0"
     fit-margin-bottom="0"
     units="px"
     inkscape:window-width="1920"
     inkscape:window-height="1001"
     inkscape:window-x="-9"
     inkscape:window-y="-9"
     inkscape:window-maximized="1" />
  <metadata
     id="metadata42843">
    <rdf:RDF>
      <cc:Work
         rdf:about="">
        <dc:format>image/svg+xml</dc:format>
        <dc:type
           rdf:resource="http://purl.org/dc/dcmitype/StillImage" />
        <dc:title></dc:title>
      </cc:Work>
    </rdf:RDF>
  </metadata>
  <g
     inkscape:label="Layer 1"
     inkscape:groupmode="layer"
     id="layer1"
     transform="translate(268.1838,-103.84731)">
    <g
       transform="translate(-446.43437,-246.89462)"
       id="g42738">
      <path
         d="m 202.48505,359.69166 h 0.0254 c 0.5455,-0.70837 1.21468,-1.00614 2.05194,-1.00614 0.93347,0 1.7422,0.37299 2.20735,1.21928 0.444,-0.79614 1.31615,-1.21928 2.20416,-1.21928 1.6386,0 2.20682,1.05629 2.20682,2.52632 v 4.06532 h -2.29667 v -3.04664 c 0,-0.65822 0.0264,-1.73959 -0.94616,-1.73959 -1.06244,0 -1.10472,0.98107 -1.10472,1.73019 v 3.05604 H 204.537 l -1e-5,-3.05604 c 0,-0.71151 0,-1.79601 -1.02755,-1.79601 -1.02756,0 -1.02756,1.0845 -1.02756,1.79601 l 1e-5,3.05604 h -2.29615 v -6.39418 h 2.29614 v 0.80555 z"
         style="fill:#0f4b8f;fill-opacity:1;fill-rule:nonzero;stroke:none;stroke-width:2.62739944"
         id="path42190"
         inkscape:connector-curvature="0" />
      <path
         d="m 214.46051,361.1899 2.38389,-2.30378 h 3.13975 l -3.24018,2.9526 3.44369,3.43844 h -3.2164 l -2.51074,-2.60468 v 2.60468 h -2.29667 l -1e-5,-10.35606 h 2.29667 z"
         style="fill:#0f4b8f;fill-opacity:1;fill-rule:nonzero;stroke:none;stroke-width:2.62739944"
         id="path42192"
         inkscape:connector-curvature="0" />
      <path
         d="m 223.62605,360.64452 c 0.93559,0 1.47738,0.65822 1.47738,1.44182 0,0.7836 -0.54179,1.42929 -1.47737,1.42929 -0.93559,0 -1.47738,-0.62375 -1.47738,-1.42929 0,-0.80554 0.54179,-1.44182 1.47737,-1.44182 z m 0,-1.959 c -2.08788,0 -3.90619,1.22868 -3.90618,3.40082 0,2.17214 1.83416,3.38829 3.90619,3.38829 2.07202,0 3.90619,-1.22869 3.90619,-3.38829 -1e-5,-2.1596 -1.81831,-3.40082 -3.9062,-3.40082 z"
         style="fill:#0f4b8f;fill-opacity:1;fill-rule:nonzero;stroke:none;stroke-width:2.62739944"
         id="path42194"
         inkscape:connector-curvature="0" />
      <path
         d="m 230.672,359.92361 h 0.0264 c 0.44136,-0.78047 1.19987,-1.12839 2.09316,-1.12839 h 0.44137 v 2.17214 c -0.31715,-0.17553 -0.61844,-0.21314 -0.96994,-0.21314 -1.27652,0 -1.59102,0.83689 -1.59102,1.94646 v 2.57335 h -2.29403 v -6.38791 h 2.29403 z"
         style="fill:#0f4b8f;fill-opacity:1;fill-rule:nonzero;stroke:none;stroke-width:2.62739944"
         id="path42196"
         inkscape:connector-curvature="0" />
      <path
         d="m 202.19646,370.47089 h -1.09416 v -3.24727 h -0.90387 v -0.91837 h 2.90189 v 0.91837 h -0.90386 z"
         style="fill:#0f4b8f;fill-opacity:1;fill-rule:nonzero;stroke:none;stroke-width:2.62739944"
         id="path42198"
         inkscape:connector-curvature="0" />
      <path
         d="m 203.79805,368.64351 c 0.0603,-0.29464 0.30763,-0.45136 0.60258,-0.45136 0.27274,0 0.52699,0.17867 0.5772,0.45136 z m 2.12065,0.47329 c 0,-0.96853 -0.57351,-1.5766 -1.56882,-1.5766 -0.93241,0 -1.5889,0.56733 -1.5889,1.51705 0,0.94975 0.71041,1.50767 1.66185,1.50767 0.65279,0 1.29766,-0.30404 1.45887,-0.97166 h -0.97787 c -0.111,0.18806 -0.26851,0.26015 -0.48417,0.26015 -0.41864,0 -0.63747,-0.21941 -0.63747,-0.63004 h 2.1418 v -0.10343 z"
         style="fill:#0f4b8f;fill-opacity:1;fill-rule:nonzero;stroke:none;stroke-width:2.62739944"
         id="path42200"
         inkscape:connector-curvature="0" />
      <path
         d="m 208.52988,368.55888 c -0.15329,-0.1097 -0.33036,-0.2006 -0.52329,-0.2006 -0.39115,0 -0.69773,0.29777 -0.69773,0.68957 0,0.3918 0.29601,0.69586 0.71623,0.69586 0.17707,0 0.37529,-0.0721 0.50743,-0.19433 v 0.85255 c -0.222,0.10971 -0.46779,0.15986 -0.71358,0.15986 -0.84572,0 -1.55666,-0.62375 -1.55666,-1.47947 0,-0.91211 0.70036,-1.54212 1.60159,-1.54212 0.23522,0 0.47043,0.0564 0.66865,0.16612 v 0.84942 z"
         style="fill:#0f4b8f;fill-opacity:1;fill-rule:nonzero;stroke:none;stroke-width:2.62739944"
         id="path42202"
         inkscape:connector-curvature="0" />
      <path
         d="m 210.09711,365.88837 v 2.10632 h 0.0132 c 0.23258,-0.31031 0.51801,-0.45136 0.9118,-0.45136 0.7268,0 1.08094,0.47643 1.08094,1.19421 l 1e-5,1.73335 h -1.01752 v -1.45439 c 0,-0.33224 -0.0502,-0.67389 -0.45722,-0.67389 -0.40436,0 -0.52858,0.34165 -0.52858,0.67389 l 1e-5,1.45439 h -1.01752 v -4.58252 h 1.01751 z"
         style="fill:#0f4b8f;fill-opacity:1;fill-rule:nonzero;stroke:none;stroke-width:2.62739944"
         id="path42204"
         inkscape:connector-curvature="0" />
      <path
         d="m 213.67823,368.00096 h 0.0106 c 0.23521,-0.34165 0.518,-0.45763 0.91444,-0.45763 0.77172,0 1.0783,0.47957 1.0783,1.1754 v 1.75216 h -1.01751 l -1e-5,-1.3823 c 0,-0.26956 0.0449,-0.74598 -0.45722,-0.74598 -0.41229,0 -0.52857,0.30403 -0.52857,0.65822 v 1.47006 h -1.02016 v -2.83352 h 1.02016 z"
         style="fill:#0f4b8f;fill-opacity:1;fill-rule:nonzero;stroke:none;stroke-width:2.62739944"
         id="path42206"
         inkscape:connector-curvature="0" />
      <path
         d="m 217.92799,368.4147 c 0.41494,0 0.65544,0.2915 0.65544,0.64255 0,0.35105 -0.2405,0.63317 -0.65544,0.63317 -0.41757,0 -0.65808,-0.27585 -0.65808,-0.63317 0,-0.35732 0.24051,-0.64255 0.65808,-0.64255 z m 0,-0.87137 c -0.92501,0 -1.72581,0.54539 -1.7258,1.51392 0,0.96855 0.80872,1.50767 1.7258,1.50767 0.91444,0 1.72317,-0.54852 1.72317,-1.50767 0,-0.95913 -0.8008,-1.51392 -1.72317,-1.51392 z"
         style="fill:#0f4b8f;fill-opacity:1;fill-rule:nonzero;stroke:none;stroke-width:2.62739944"
         id="path42208"
         inkscape:connector-curvature="0" />
      <path
         d="m 220.13745,370.47089 h 1.01804 v -4.58249 h -1.01804 z"
         style="fill:#0f4b8f;fill-opacity:1;fill-rule:nonzero;stroke:none;stroke-width:2.62739944"
         id="path42210"
         inkscape:connector-curvature="0" />
      <path
         d="m 223.34063,368.4147 c 0.41493,0 0.65544,0.2915 0.65544,0.64255 0,0.35105 -0.24051,0.63317 -0.65544,0.63317 -0.41493,0 -0.65544,-0.27585 -0.65544,-0.63317 0,-0.35732 0.24051,-0.64255 0.65544,-0.64255 z m 0,-0.87137 c -0.92237,0 -1.72581,0.54539 -1.72581,1.51392 0,0.96855 0.80873,1.50767 1.72581,1.50767 0.91708,0 1.72581,-0.54852 1.72581,-1.50767 0,-0.95913 -0.80344,-1.51392 -1.72581,-1.51392 z"
         style="fill:#0f4b8f;fill-opacity:1;fill-rule:nonzero;stroke:none;stroke-width:2.62739944"
         id="path42212"
         inkscape:connector-curvature="0" />
      <path
         d="m 227.19925,368.39276 c 0.41229,0 0.65543,0.2915 0.65544,0.63941 0,0.34792 -0.24315,0.63631 -0.65544,0.63631 -0.41229,0 -0.65279,-0.27585 -0.6528,-0.63631 0,-0.36045 0.24051,-0.63941 0.6528,-0.63941 z m 1.64123,-0.75539 h -1.01751 v 0.29776 h -0.0132 c -0.20085,-0.28209 -0.50743,-0.3918 -0.84308,-0.3918 -0.87744,0 -1.4668,0.70524 -1.4668,1.53586 0,0.83064 0.57351,1.44812 1.4113,1.44812 0.38058,0 0.64751,-0.12851 0.9118,-0.38867 v 0.13165 c 0,0.45762 -0.10836,0.81181 -0.65543,0.81181 -0.0951,0 -0.19822,-0.0219 -0.29072,-0.0658 -0.0899,-0.0408 -0.16122,-0.11284 -0.19029,-0.21314 h -1.13909 c 0.0899,0.74285 0.96995,1.08136 1.63067,1.08136 1.05715,0 1.66237,-0.48583 1.66237,-1.68944 v -2.56083 z"
         style="fill:#0f4b8f;fill-opacity:1;fill-rule:nonzero;stroke:none;stroke-width:2.62739944"
         id="path42214"
         inkscape:connector-curvature="0" />
      <path
         d="m 229.05456,367.63737 h 1.17344 l 0.76644,1.45122 0.74793,-1.45122 h 1.15495 l -2.29667,4.24713 h -1.13909 l 0.97787,-1.80228 -1.38752,-2.44799 z"
         style="fill:#0f4b8f;fill-opacity:1;fill-rule:nonzero;stroke:none;stroke-width:2.62739944"
         id="path42216"
         inkscape:connector-curvature="0" />
      <path
         d="m 191.93675,358.95194 h -2.51497 l 0.99901,-2.22542 c 0.75163,-1.59541 1.3891,-2.12199 2.32468,-2.12199 0.93559,0 1.56671,0.52344 2.32152,2.12199 l 3.26344,6.79851 c 0.60575,-1.12211 0.95461,-2.36334 0.95461,-3.67978 v 0 -0.006 0 c -0.003,-4.87713 -4.65255,-8.83274 -10.38656,-8.83274 -5.73401,0 -10.37699,3.95248 -10.38333,8.83274 v 0 0.006 0 c 0.006,4.87712 4.6525,8.83274 10.38652,8.83274 3.16512,0 5.99407,-1.20675 7.90012,-3.10933 -0.56135,-1.1848 -4.00874,-8.47542 -4.00874,-8.47542 l -0.85313,1.85557 z m 0.77701,3.76442 h -2.56254 l -1.33519,2.85857 h -2.51497 l 2.2898,-4.85519 h 4.1229 v 1.99348 z"
         style="fill:#0f4b8f;fill-opacity:1;fill-rule:nonzero;stroke:none;stroke-width:2.62739944"
         id="path42218"
         inkscape:connector-curvature="0" />
      <path
         d="m 234.2769,366.53719 c 0.12158,0 0.21144,0.0188 0.26958,0.0564 0.0555,0.0376 0.0846,0.0972 0.0846,0.17866 0,0.0815 -0.0291,0.13165 -0.0819,0.16926 -0.0555,0.0345 -0.14007,0.0533 -0.25636,0.0533 h -0.20614 v -0.45762 h 0.19293 z m -0.50743,1.25376 h 0.31186 v -0.60807 h 0.22993 l 0.28808,0.60807 h 0.34886 l -0.32243,-0.65822 c 0.10307,-0.0219 0.18236,-0.069 0.2405,-0.13792 0.0555,-0.0689 0.0846,-0.15672 0.0846,-0.26329 0,-0.12851 -0.0502,-0.22567 -0.15857,-0.2915 -0.10308,-0.0658 -0.25636,-0.1003 -0.45987,-0.1003 h -0.56293 v 1.4481 z m 0.95937,-1.70825 c 0.13479,0.0564 0.25372,0.13478 0.36472,0.24135 0.10571,0.10657 0.185,0.22254 0.23521,0.35732 0.0529,0.13165 0.0793,0.27583 0.0793,0.42942 0,0.14418 -0.0291,0.28209 -0.0846,0.4106 -0.0581,0.12851 -0.13743,0.24449 -0.24315,0.34479 -0.10571,0.10657 -0.22993,0.18493 -0.36736,0.23821 -0.13479,0.0533 -0.2775,0.0815 -0.43079,0.0815 -0.14007,0 -0.27486,-0.0282 -0.40965,-0.0846 -0.13214,-0.0564 -0.25371,-0.13792 -0.35679,-0.24135 -0.10571,-0.10344 -0.185,-0.22254 -0.23786,-0.35419 -0.0555,-0.13164 -0.0846,-0.26956 -0.0846,-0.41374 0,-0.14418 0.0291,-0.28523 0.0872,-0.41688 0.0555,-0.13477 0.14008,-0.25388 0.24579,-0.36359 0.10572,-0.10343 0.22201,-0.18179 0.35415,-0.23194 0.1295,-0.0533 0.26957,-0.0784 0.42022,-0.0784 0.15329,0 0.29336,0.0282 0.42815,0.0846 z m -0.92501,-0.18493 c -0.15329,0.0627 -0.29336,0.15359 -0.41229,0.2727 -0.12686,0.12537 -0.22465,0.26642 -0.29336,0.42627 -0.0661,0.15986 -0.10043,0.32285 -0.10043,0.49524 0,0.17239 0.0317,0.33225 0.0978,0.48583 0.0634,0.15359 0.15858,0.29464 0.28279,0.41688 0.12422,0.12537 0.26694,0.22254 0.42551,0.28836 0.15857,0.0658 0.32507,0.1003 0.49686,0.1003 0.17179,0 0.33565,-0.0313 0.49422,-0.0972 0.15858,-0.0658 0.30129,-0.15672 0.42815,-0.27897 0.12422,-0.1191 0.21936,-0.25702 0.28543,-0.41374 0.0634,-0.15672 0.10043,-0.32284 0.10043,-0.5015 0,-0.17866 -0.0317,-0.33538 -0.0951,-0.48897 -0.0634,-0.15358 -0.15593,-0.2915 -0.27751,-0.4106 -0.12421,-0.12538 -0.26693,-0.22255 -0.4255,-0.28837 -0.15858,-0.0658 -0.32772,-0.0972 -0.50744,-0.0972 -0.17707,0 -0.34093,0.0313 -0.49422,0.0909 z"
         style="fill:#0f4b8f;fill-opacity:1;fill-rule:nonzero;stroke:none;stroke-width:2.62739944"
         id="path42228"
         inkscape:connector-curvature="0" />
    </g>
  </g>
</svg>
